<svg width="443" height="125" viewBox="0 0 443 125" fill="none" xmlns="http://www.w3.org/2000/svg">
<rect width="129" height="125" rx="30" fill="#320F1C"/>
<path d="M150.04 43.341H159.868V87H150.04V43.341ZM169.344 54.996C170.94 54.534 172.998 54.114 175.518 53.736C178.038 53.316 180.684 53.106 183.456 53.106C186.27 53.106 188.601 53.484 190.449 54.24C192.339 54.954 193.83 55.983 194.922 57.327C196.014 58.671 196.791 60.267 197.253 62.115C197.715 63.963 197.946 66.021 197.946 68.289V87H188.559V69.423C188.559 66.399 188.16 64.257 187.362 62.997C186.564 61.737 185.073 61.107 182.889 61.107C182.217 61.107 181.503 61.149 180.747 61.233C179.991 61.275 179.319 61.338 178.731 61.422V87H169.344V54.996ZM214.467 87C212.325 82.8 210.141 77.886 207.915 72.258C205.731 66.63 203.652 60.498 201.678 53.862H211.632C212.052 55.5 212.535 57.285 213.081 59.217C213.669 61.107 214.257 63.039 214.845 65.013C215.475 66.945 216.084 68.835 216.672 70.683C217.302 72.531 217.911 74.211 218.499 75.723C219.045 74.211 219.633 72.531 220.263 70.683C220.893 68.835 221.502 66.945 222.09 65.013C222.72 63.039 223.308 61.107 223.854 59.217C224.442 57.285 224.946 55.5 225.366 53.862H235.068C233.094 60.498 230.994 66.63 228.768 72.258C226.584 77.886 224.421 82.8 222.279 87H214.467ZM249.483 87H240.096V53.862H249.483V87ZM250.365 44.286C250.365 46.008 249.798 47.373 248.664 48.381C247.572 49.347 246.27 49.83 244.758 49.83C243.246 49.83 241.923 49.347 240.789 48.381C239.697 47.373 239.151 46.008 239.151 44.286C239.151 42.564 239.697 41.22 240.789 40.254C241.923 39.246 243.246 38.742 244.758 38.742C246.27 38.742 247.572 39.246 248.664 40.254C249.798 41.22 250.365 42.564 250.365 44.286ZM257.991 45.609L267.378 44.097V53.862H278.655V61.674H267.378V73.329C267.378 75.303 267.714 76.878 268.386 78.054C269.1 79.23 270.507 79.818 272.607 79.818C273.615 79.818 274.644 79.734 275.694 79.566C276.786 79.356 277.773 79.083 278.655 78.747L279.978 86.055C278.844 86.517 277.584 86.916 276.198 87.252C274.812 87.588 273.111 87.756 271.095 87.756C268.533 87.756 266.412 87.42 264.732 86.748C263.052 86.034 261.708 85.068 260.7 83.85C259.692 82.59 258.978 81.078 258.558 79.314C258.18 77.55 257.991 75.597 257.991 73.455V45.609ZM283.494 70.683C283.494 67.743 283.935 65.181 284.817 62.997C285.741 60.771 286.938 58.923 288.408 57.453C289.878 55.983 291.558 54.87 293.448 54.114C295.38 53.358 297.354 52.98 299.37 52.98C304.074 52.98 307.791 54.429 310.521 57.327C313.251 60.183 314.616 64.404 314.616 69.99C314.616 70.536 314.595 71.145 314.553 71.817C314.511 72.447 314.469 73.014 314.427 73.518H293.133C293.343 75.45 294.246 76.983 295.842 78.117C297.438 79.251 299.58 79.818 302.268 79.818C303.99 79.818 305.67 79.671 307.308 79.377C308.988 79.041 310.353 78.642 311.403 78.18L312.663 85.803C312.159 86.055 311.487 86.307 310.647 86.559C309.807 86.811 308.862 87.021 307.812 87.189C306.804 87.399 305.712 87.567 304.536 87.693C303.36 87.819 302.184 87.882 301.008 87.882C298.026 87.882 295.422 87.441 293.196 86.559C291.012 85.677 289.185 84.48 287.715 82.968C286.287 81.414 285.216 79.587 284.502 77.487C283.83 75.387 283.494 73.119 283.494 70.683ZM305.544 67.092C305.502 66.294 305.355 65.517 305.103 64.761C304.893 64.005 304.536 63.333 304.032 62.745C303.57 62.157 302.961 61.674 302.205 61.296C301.491 60.918 300.588 60.729 299.496 60.729C298.446 60.729 297.543 60.918 296.787 61.296C296.031 61.632 295.401 62.094 294.897 62.682C294.393 63.27 293.994 63.963 293.7 64.761C293.448 65.517 293.259 66.294 293.133 67.092H305.544Z" fill="#320F1C"/>
<path d="M338.492 61.296C340.256 58.314 341.936 55.332 343.532 52.35C345.128 49.368 346.598 46.365 347.942 43.341H358.778C356.384 48.045 353.906 52.602 351.344 57.012C348.782 61.422 346.073 65.853 343.217 70.305V87H333.389V70.431C330.533 65.979 327.803 61.527 325.199 57.075C322.637 52.623 320.159 48.045 317.765 43.341H329.168C330.512 46.365 331.961 49.368 333.515 52.35C335.069 55.332 336.728 58.314 338.492 61.296ZM388.97 70.368C388.97 72.972 388.592 75.366 387.836 77.55C387.08 79.692 385.988 81.54 384.56 83.094C383.132 84.606 381.41 85.782 379.394 86.622C377.42 87.462 375.194 87.882 372.716 87.882C370.28 87.882 368.054 87.462 366.038 86.622C364.064 85.782 362.363 84.606 360.935 83.094C359.507 81.54 358.394 79.692 357.596 77.55C356.798 75.366 356.399 72.972 356.399 70.368C356.399 67.764 356.798 65.391 357.596 63.249C358.436 61.107 359.57 59.28 360.998 57.768C362.468 56.256 364.19 55.08 366.164 54.24C368.18 53.4 370.364 52.98 372.716 52.98C375.11 52.98 377.294 53.4 379.268 54.24C381.284 55.08 383.006 56.256 384.434 57.768C385.862 59.28 386.975 61.107 387.773 63.249C388.571 65.391 388.97 67.764 388.97 70.368ZM379.394 70.368C379.394 67.47 378.806 65.202 377.63 63.564C376.496 61.884 374.858 61.044 372.716 61.044C370.574 61.044 368.915 61.884 367.739 63.564C366.563 65.202 365.975 67.47 365.975 70.368C365.975 73.266 366.563 75.576 367.739 77.298C368.915 78.978 370.574 79.818 372.716 79.818C374.858 79.818 376.496 78.978 377.63 77.298C378.806 75.576 379.394 73.266 379.394 70.368ZM424.529 85.866C422.933 86.328 420.875 86.748 418.355 87.126C415.835 87.546 413.189 87.756 410.417 87.756C407.603 87.756 405.251 87.378 403.361 86.622C401.513 85.866 400.043 84.816 398.951 83.472C397.859 82.086 397.082 80.448 396.62 78.558C396.158 76.668 395.927 74.589 395.927 72.321V53.862H405.314V71.187C405.314 74.211 405.713 76.395 406.511 77.739C407.309 79.083 408.8 79.755 410.984 79.755C411.656 79.755 412.37 79.734 413.126 79.692C413.882 79.608 414.554 79.524 415.142 79.44V53.862H424.529V85.866Z" fill="#FFCC80"/>
<circle cx="65" cy="26.5" r="12.5" fill="#FFD698"/>
<rect x="53" y="42" width="24" height="68" rx="12" fill="#FFD698"/>
</svg>
